<?xml version="1.0" standalone="no"?>
<!DOCTYPE svg PUBLIC "-//W3C//DTD SVG 20010904//EN"
 "http://www.w3.org/TR/2001/REC-SVG-20010904/DTD/svg10.dtd">
<svg version="1.0" xmlns="http://www.w3.org/2000/svg"
 width="151.000000pt" height="151.000000pt" viewBox="0 0 151.000000 151.000000"
 preserveAspectRatio="xMidYMid meet">
<metadata>
Created by potrace 1.14, written by Peter Selinger 2001-2017
</metadata>
<g transform="translate(0.000000,151.000000) scale(0.100000,-0.100000)"
fill="#000000" stroke="none">
<path d="M0 755 l0 -755 755 0 755 0 0 755 0 755 -755 0 -755 0 0 -755z m1040
455 c0 -38 1 -73 3 -77 1 -5 -15 -9 -35 -11 l-38 -3 0 40 0 41 -127 0 c-148 0
-190 -13 -241 -75 -71 -87 -57 -222 31 -289 19 -14 47 -28 63 -32 28 -5 30 -3
41 39 17 61 88 138 155 167 108 47 228 23 316 -63 69 -68 82 -117 82 -315 l0
-167 -77 2 -78 1 -3 36 c-3 36 -3 36 37 36 l41 0 0 125 c0 91 -4 136 -16 163
-57 137 -225 171 -330 67 -43 -44 -64 -89 -48 -105 5 -4 25 -13 46 -19 53 -17
127 -87 154 -146 18 -37 24 -68 24 -120 0 -89 -29 -155 -94 -212 -72 -63 -112
-73 -303 -73 l-163 0 -1 45 c0 25 -1 60 -2 78 -1 30 2 32 36 35 l37 3 0 -40 0
-41 128 0 c147 0 189 13 240 75 87 106 47 267 -81 320 -29 12 -38 13 -41 3 -3
-7 -10 -29 -16 -50 -16 -52 -86 -127 -145 -154 -66 -31 -170 -33 -235 -3 -65
29 -127 94 -150 157 -17 45 -20 78 -20 223 l0 170 78 -3 77 -3 3 -37 3 -38
-40 0 -41 0 0 -127 c0 -148 13 -190 75 -240 92 -76 225 -58 295 39 43 59 40
81 -13 95 -24 7 -64 30 -91 55 -159 139 -115 402 80 478 41 16 76 19 217 20
l167 0 0 -70z"/>
</g>
</svg>
